<?xml version="1.0" encoding="utf-8"?>
<!-- Generator: Adobe Illustrator 17.0.0, SVG Export Plug-In . SVG Version: 6.00 Build 0)  -->
<!DOCTYPE svg PUBLIC "-//W3C//DTD SVG 1.1//EN" "http://www.w3.org/Graphics/SVG/1.1/DTD/svg11.dtd">
<svg version="1.1" id="Layer_1" xmlns="http://www.w3.org/2000/svg" xmlns:xlink="http://www.w3.org/1999/xlink" x="0px" y="0px"
	 width="16.001px" height="16.001px" viewBox="0 0 16.001 16.001" enable-background="new 0 0 16.001 16.001" xml:space="preserve">
<g id="dribbble">
	<g>
		<path fill-rule="evenodd" clip-rule="evenodd" fill="#9BD6CE" d="M15.838,6.39c-0.105-0.514-0.262-1.02-0.466-1.504
			c-0.2-0.475-0.449-0.932-0.738-1.359c-0.286-0.424-0.615-0.822-0.976-1.183c-0.362-0.362-0.76-0.691-1.184-0.977
			c-0.427-0.29-0.885-0.537-1.359-0.738c-0.483-0.204-0.989-0.362-1.504-0.466C9.084,0.054,8.542,0,8.001,0
			C7.458,0,6.916,0.054,6.389,0.163c-0.514,0.104-1.02,0.262-1.503,0.466C4.412,0.83,3.954,1.077,3.526,1.367
			C3.103,1.653,2.705,1.981,2.343,2.344c-0.362,0.361-0.69,0.759-0.976,1.183C1.078,3.954,0.83,4.411,0.629,4.886
			C0.425,5.369,0.268,5.876,0.162,6.39C0.055,6.915,0,7.458,0,8c0,0.543,0.055,1.085,0.162,1.612
			c0.105,0.514,0.262,1.02,0.467,1.503c0.2,0.474,0.449,0.933,0.738,1.36c0.286,0.424,0.614,0.821,0.976,1.184
			c0.362,0.362,0.76,0.69,1.184,0.976c0.428,0.289,0.885,0.538,1.359,0.738c0.483,0.204,0.989,0.361,1.503,0.466
			c0.527,0.109,1.069,0.163,1.612,0.163c0.542,0,1.084-0.054,1.611-0.163c0.514-0.106,1.02-0.262,1.504-0.466
			c0.474-0.2,0.932-0.449,1.359-0.738c0.424-0.286,0.822-0.614,1.184-0.976c0.362-0.362,0.69-0.76,0.976-1.184
			c0.289-0.427,0.537-0.885,0.738-1.36c0.204-0.483,0.362-0.989,0.466-1.503C15.946,9.085,16.001,8.543,16.001,8
			C16.001,7.458,15.946,6.915,15.838,6.39z M8.001,1.168c1.73,0,3.309,0.645,4.512,1.705c-0.017,0.026-0.99,1.507-3.569,2.474
			C7.776,3.201,6.493,1.495,6.39,1.361C6.907,1.236,7.445,1.168,8.001,1.168z M6.364,1.366c0,0.001-0.001,0.001-0.001,0.001
			S6.355,1.37,6.342,1.372C6.349,1.37,6.357,1.369,6.364,1.366z M5.085,1.821C5.176,1.943,6.44,3.656,7.622,5.758
			C4.342,6.629,1.495,6.595,1.314,6.592C1.758,4.476,3.18,2.721,5.085,1.821z M2.919,12.566C1.831,11.355,1.168,9.755,1.168,8
			c0-0.073,0.003-0.144,0.006-0.216c0.12,0.003,3.497,0.079,7.014-0.973c0.196,0.383,0.383,0.772,0.554,1.161
			c-0.09,0.026-0.18,0.053-0.269,0.082c-3.687,1.192-5.557,4.509-5.557,4.509S2.918,12.565,2.919,12.566z M8.001,14.833
			c-1.585,0-3.036-0.55-4.195-1.456c-0.001,0.002-0.005,0.01-0.005,0.01s-0.063-0.047-0.153-0.12c0.049,0.041,0.107,0.07,0.158,0.11
			c0.051-0.108,1.384-2.874,5.357-4.258c0.015-0.005,0.03-0.01,0.045-0.014c0.961,2.498,1.358,4.59,1.46,5.188
			C9.848,14.64,8.947,14.833,8.001,14.833z M11.818,13.667c-0.069-0.413-0.434-2.418-1.33-4.88c2.206-0.353,4.117,0.252,4.258,0.298
			C14.442,10.989,13.352,12.631,11.818,13.667z M10.072,7.708c-0.048-0.117-0.097-0.234-0.147-0.353
			C9.782,7.021,9.629,6.69,9.47,6.365c2.698-1.102,3.794-2.686,3.807-2.704c0.958,1.164,1.538,2.651,1.554,4.272
			C14.732,7.911,12.419,7.413,10.072,7.708z"/>
	</g>
</g>
</svg>
