<?xml version="1.0" encoding="utf-8"?>
<!-- Generator: Adobe Illustrator 17.0.0, SVG Export Plug-In . SVG Version: 6.00 Build 0)  -->
<!DOCTYPE svg PUBLIC "-//W3C//DTD SVG 1.1//EN" "http://www.w3.org/Graphics/SVG/1.1/DTD/svg11.dtd">
<svg version="1.1" id="Layer_1" xmlns="http://www.w3.org/2000/svg" xmlns:xlink="http://www.w3.org/1999/xlink" x="0px" y="0px"
	 width="7.505px" height="16.006px" viewBox="0 0 7.505 16.006" enable-background="new 0 0 7.505 16.006" xml:space="preserve">
<g id="facebook_1_">
	<g>
		<path fill-rule="evenodd" clip-rule="evenodd" fill="#9BD6CE" d="M4.987,5.517c0.023-0.836-0.131-2,0.129-2.398
			C5.591,2.391,7.49,2.58,7.49,2.58s0-1.653,0-2.576c-2.995,0-3.976-0.126-5.004,0.919C1.572,1.852,1.543,3.676,1.468,5.517H0v2.518
			h1.484c-0.001,2.626,0.001,5.504,0,7.971c1.116,0,3.489,0,3.489,0V8.004c0,0,1.293,0,2.01,0C7.14,7.157,7.292,6.495,7.505,5.517
			H4.987z"/>
	</g>
</g>
</svg>
