<?xml version="1.0" encoding="utf-8"?>
<!-- Generator: Adobe Illustrator 17.0.0, SVG Export Plug-In . SVG Version: 6.00 Build 0)  -->
<!DOCTYPE svg PUBLIC "-//W3C//DTD SVG 1.1//EN" "http://www.w3.org/Graphics/SVG/1.1/DTD/svg11.dtd">
<svg version="1.1" id="Layer_1" xmlns="http://www.w3.org/2000/svg" xmlns:xlink="http://www.w3.org/1999/xlink" x="0px" y="0px"
	 width="16px" height="13.753px" viewBox="0 0 16 13.753" enable-background="new 0 0 16 13.753" xml:space="preserve">
<g id="google_plus">
	<g>
		<path fill-rule="evenodd" clip-rule="evenodd" fill="#9BD6CE" d="M13.5,2.456v-2.44h-1v2.44H10v0.998h2.5v2.44h1v-2.44H16V2.456
			H13.5z M8.868,0c0,0-3.165,0-4.22,0C2.756,0,0.975,1.501,0.975,3.132c0,1.666,1.289,3.057,3.214,3.057
			c0.134,0,0.264,0.021,0.391,0.012C4.456,6.436,4.367,6.712,4.367,6.986c0,0.464,0.254,0.845,0.574,1.151
			c-0.242,0-0.476,0.011-0.732,0.011C1.866,8.148,0,9.615,0,11.135c0,1.497,2.039,2.618,4.383,2.618
			c2.671,0,4.116-1.672,4.116-3.169c0-1.2-0.33-1.919-1.444-2.693C6.673,7.625,5.944,6.98,5.944,6.601
			c0-0.444,0.129-0.663,0.81-1.186C7.452,4.88,7.993,4.19,7.993,3.313c0-1.042-0.52-1.84-1.407-2.331h1.338L8.868,0z M7.393,10.325
			c0.033,0.139,0.052,0.282,0.052,0.428c0,1.209-0.794,2.032-3.071,2.032c-1.62,0-2.79-0.885-2.79-2.094
			c0-1.185,1.451-2.173,3.071-2.156C5.034,8.54,5.386,8.6,5.705,8.702C6.585,9.302,7.215,9.641,7.393,10.325z M4.8,5.814
			C3.713,5.782,2.68,4.619,2.492,3.217C2.304,1.814,3.033,0.742,4.12,0.774c1.087,0.031,2.167,1.157,2.355,2.559
			C6.663,4.735,5.887,5.845,4.8,5.814z"/>
	</g>
</g>
</svg>
