<?xml version="1.0" encoding="utf-8"?>
<!-- Generator: Adobe Illustrator 17.0.0, SVG Export Plug-In . SVG Version: 6.00 Build 0)  -->
<!DOCTYPE svg PUBLIC "-//W3C//DTD SVG 1.1//EN" "http://www.w3.org/Graphics/SVG/1.1/DTD/svg11.dtd">
<svg version="1.1" id="Layer_1" xmlns="http://www.w3.org/2000/svg" xmlns:xlink="http://www.w3.org/1999/xlink" x="0px" y="0px"
	 width="16px" height="16px" viewBox="0 0 16 16" enable-background="new 0 0 16 16" xml:space="preserve">
<g id="instagram_1_">
	<g>
		<path fill-rule="evenodd" clip-rule="evenodd" fill="#9BD6CE" d="M14,0H2C0.895,0,0,0.895,0,2v12c0,1.104,0.895,2,2,2h12
			c1.105,0,2-0.895,2-2V2C16,0.895,15.105,0,14,0z M4.918,7.669c0.003-0.032,0.01-0.063,0.014-0.094
			c0.011-0.078,0.022-0.154,0.038-0.23c0.007-0.034,0.017-0.067,0.026-0.1c0.018-0.072,0.037-0.142,0.06-0.212
			C5.067,6.999,5.08,6.968,5.092,6.936C5.117,6.868,5.143,6.8,5.172,6.735C5.177,6.723,5.181,6.711,5.186,6.7h0.003
			C5.68,5.639,6.753,4.9,8,4.9c1.247,0,2.319,0.738,2.811,1.8h0.003c0.005,0.011,0.009,0.023,0.014,0.035
			c0.029,0.065,0.055,0.133,0.08,0.201c0.012,0.032,0.025,0.064,0.036,0.097c0.023,0.07,0.042,0.141,0.06,0.212
			c0.008,0.033,0.018,0.066,0.026,0.1c0.016,0.076,0.028,0.153,0.038,0.23c0.004,0.031,0.011,0.062,0.014,0.094
			C11.093,7.778,11.1,7.888,11.1,8c0,1.712-1.388,3.1-3.1,3.1c-1.712,0-3.1-1.388-3.1-3.1C4.9,7.888,4.907,7.778,4.918,7.669z
			 M14.2,13.4c0,0.442-0.358,0.8-0.8,0.8H2.6c-0.442,0-0.8-0.358-0.8-0.8V6.7h1.475C3.161,7.114,3.1,7.55,3.1,8
			c0,2.706,2.194,4.9,4.9,4.9s4.9-2.194,4.9-4.9c0-0.45-0.061-0.886-0.175-1.3H14.2V13.4z M14.2,4.2c0,0.442-0.358,0.8-0.8,0.8h-1.6
			C11.358,5,11,4.642,11,4.2v-1.6c0-0.442,0.358-0.8,0.8-0.8h1.6c0.442,0,0.8,0.358,0.8,0.8V4.2z"/>
	</g>
</g>
</svg>
