<?xml version="1.0" encoding="utf-8"?>
<!-- Generator: Adobe Illustrator 17.0.0, SVG Export Plug-In . SVG Version: 6.00 Build 0)  -->
<!DOCTYPE svg PUBLIC "-//W3C//DTD SVG 1.1//EN" "http://www.w3.org/Graphics/SVG/1.1/DTD/svg11.dtd">
<svg version="1.1" id="Layer_1" xmlns="http://www.w3.org/2000/svg" xmlns:xlink="http://www.w3.org/1999/xlink" x="0px" y="0px"
	 width="10.002px" height="16.01px" viewBox="0 0 10.002 16.01" enable-background="new 0 0 10.002 16.01" xml:space="preserve">
<g id="tumblr">
	<g>
		<path fill-rule="evenodd" clip-rule="evenodd" fill="#9BD6CE" d="M7.595,13.403c-0.454,0-0.856-0.107-1.208-0.319
			c-0.266-0.157-0.51-0.429-0.607-0.691c-0.098-0.262-0.086-0.797-0.086-1.727V6.561h3.682V3.704H5.694V0H3.429
			C3.328,0.827,3.141,1.506,2.871,2.04c-0.27,0.536-0.627,0.994-1.075,1.376C1.351,3.797,0.626,4.09,0,4.294v2.267h2.164v5.614
			c0,0.733,0.076,1.291,0.229,1.677c0.154,0.384,0.426,0.749,0.823,1.092c0.394,0.34,0.872,0.605,1.431,0.79
			c0.559,0.184,0.989,0.276,1.717,0.276c0.641,0,1.238-0.065,1.79-0.195c0.552-0.13,1.168-0.357,1.849-0.678v-2.525
			C9.204,13.139,8.402,13.403,7.595,13.403z"/>
	</g>
</g>
</svg>
