<?xml version="1.0" encoding="utf-8"?>
<!-- Generator: Adobe Illustrator 17.0.0, SVG Export Plug-In . SVG Version: 6.00 Build 0)  -->
<!DOCTYPE svg PUBLIC "-//W3C//DTD SVG 1.1//EN" "http://www.w3.org/Graphics/SVG/1.1/DTD/svg11.dtd">
<svg version="1.1" id="Layer_1" xmlns="http://www.w3.org/2000/svg" xmlns:xlink="http://www.w3.org/1999/xlink" x="0px" y="0px"
	 width="12.246px" height="16.036px" viewBox="0 0 12.246 16.036" enable-background="new 0 0 12.246 16.036" xml:space="preserve">
<g id="pinterest_1_">
	<g>
		<path fill-rule="evenodd" clip-rule="evenodd" fill="#9BD6CE" d="M11.998,3.922c-0.242-0.831-0.623-1.497-1.146-2.069
			C10.343,1.298,9.742,0.85,8.989,0.513C8.275,0.194,7.327-0.042,6.285,0.006C5.928,0.024,5.6,0.043,5.282,0.089
			C4.325,0.228,3.537,0.518,2.84,0.93C1.932,1.467,1.187,2.217,0.678,3.156C0.433,3.609,0.211,4.166,0.092,4.769
			c-0.123,0.625-0.123,1.379,0,2.025c0.203,1.063,0.699,1.883,1.514,2.333c0.109,0.06,0.27,0.154,0.399,0.152
			c0.31-0.006,0.318-0.373,0.386-0.639c0.057-0.22,0.19-0.524,0.075-0.727C2.385,7.769,2.263,7.666,2.18,7.54
			C1.918,7.143,1.756,6.634,1.756,5.978c0-0.852,0.208-1.536,0.523-2.131C2.881,2.71,3.902,1.887,5.35,1.639
			c0.797-0.136,1.694-0.067,2.343,0.145c0.653,0.213,1.191,0.592,1.57,1.069c0.398,0.501,0.649,1.146,0.704,1.948
			c0.03,0.435-0.001,0.876-0.044,1.259C9.792,7.249,9.447,8.249,8.877,8.989C8.52,9.452,7.987,9.942,7.22,9.969
			C6.785,9.984,6.47,9.878,6.204,9.684c-0.257-0.187-0.445-0.436-0.53-0.797C5.582,8.494,5.694,8.12,5.793,7.755
			C5.992,7.02,6.211,6.448,6.378,5.687c0.074-0.338,0.142-0.797,0.05-1.183C6.342,4.143,6.156,3.887,5.886,3.726
			C5.624,3.57,5.192,3.508,4.802,3.644c-0.613,0.213-1.011,0.8-1.184,1.461C3.521,5.479,3.486,5.885,3.531,6.32
			c0.039,0.378,0.129,0.702,0.268,1.063c0.019,0.049-0.036,0.191-0.056,0.278c-0.306,1.298-0.594,2.562-0.897,3.852
			c-0.159,0.677-0.33,1.355-0.368,2.17c-0.033,0.715-0.093,1.451-0.005,2.087c0.016,0.117,0.023,0.198,0.106,0.215
			c0.108,0.022,0.032,0.189,0.391-0.228c0.541-0.626,0.953-1.4,1.277-2.201c0.196-0.483,0.314-1.017,0.448-1.543
			c0.136-0.534,0.268-1.079,0.399-1.6c0.201,0.353,0.485,0.587,0.823,0.778c0.34,0.192,0.745,0.326,1.24,0.36
			c0.509,0.036,0.985-0.055,1.402-0.176c0.42-0.123,0.791-0.306,1.096-0.506c1.262-0.823,2.102-2.268,2.398-4.036
			c0.079-0.472,0.193-0.944,0.193-1.48C12.246,4.818,12.124,4.355,11.998,3.922z"/>
	</g>
</g>
</svg>
