<?xml version="1.0" encoding="utf-8"?>
<!-- Generator: Adobe Illustrator 17.0.0, SVG Export Plug-In . SVG Version: 6.00 Build 0)  -->
<!DOCTYPE svg PUBLIC "-//W3C//DTD SVG 1.1//EN" "http://www.w3.org/Graphics/SVG/1.1/DTD/svg11.dtd">
<svg version="1.1" id="Layer_1" xmlns="http://www.w3.org/2000/svg" xmlns:xlink="http://www.w3.org/1999/xlink" x="0px" y="0px"
	 width="18.753px" height="38.023px" viewBox="0 0 18.753 38.023" enable-background="new 0 0 18.753 38.023" xml:space="preserve">
<g id="tumblr">
	<g>
		<path fill-rule="evenodd" clip-rule="evenodd" fill="#9BD6CE" d="M14.241,31.831c-0.851,0-1.605-0.253-2.266-0.757
			c-0.498-0.374-0.956-1.019-1.138-1.642c-0.183-0.623-0.161-1.894-0.161-4.101v-9.749h6.904V8.797h-6.904V0H6.429
			C6.239,1.963,5.89,3.577,5.383,4.844c-0.506,1.273-1.176,2.36-2.016,3.267C2.533,9.017,1.173,9.714,0,10.198v5.384h4.057v13.334
			c0,1.741,0.143,3.066,0.429,3.982c0.288,0.912,0.799,1.779,1.543,2.593c0.739,0.808,1.635,1.437,2.683,1.877
			c1.049,0.436,1.854,0.655,3.22,0.655c1.202,0,2.32-0.154,3.356-0.463c1.035-0.309,2.191-0.848,3.466-1.61v-5.997
			C17.257,31.204,15.754,31.831,14.241,31.831z"/>
	</g>
</g>
</svg>
