<?xml version="1.0" encoding="utf-8"?>
<!-- Generator: Adobe Illustrator 17.0.0, SVG Export Plug-In . SVG Version: 6.00 Build 0)  -->
<!DOCTYPE svg PUBLIC "-//W3C//DTD SVG 1.1//EN" "http://www.w3.org/Graphics/SVG/1.1/DTD/svg11.dtd">
<svg version="1.1" id="Layer_1" xmlns="http://www.w3.org/2000/svg" xmlns:xlink="http://www.w3.org/1999/xlink" x="0px" y="0px"
	 width="16px" height="12.987px" viewBox="0 0 16 12.987" enable-background="new 0 0 16 12.987" xml:space="preserve">
<g id="twitter_1_">
	<g>
		<path fill-rule="evenodd" clip-rule="evenodd" fill="#9BD6CE" d="M14.142,2.045V2.037c0.139-0.054,0.249-0.17,0.36-0.256
			c0.5-0.385,0.825-0.892,1.065-1.541c-0.136,0.075-0.272,0.149-0.408,0.224c-0.42,0.213-1.133,0.52-1.682,0.567
			c-0.646-0.589-1.323-1.052-2.595-1.03c-0.133,0.016-0.267,0.032-0.4,0.048c-0.259,0.057-0.506,0.127-0.729,0.224
			C8.823,0.676,8.188,1.43,7.896,2.476C7.78,2.892,7.732,3.587,7.88,4.017C7.355,4.016,6.846,3.933,6.406,3.826
			C4.673,3.399,3.593,2.822,2.394,1.885C2.043,1.61,1.697,1.298,1.417,0.951c-0.09-0.112-0.233-0.21-0.296-0.343
			C1.116,0.605,1.11,0.602,1.105,0.6c-0.139,0.258-0.27,0.538-0.352,0.854C0.428,2.703,0.941,3.751,1.489,4.432
			C1.656,4.639,1.925,4.767,2.09,4.959h0.016c-0.124,0.046-0.34-0.017-0.448-0.039C1.402,4.866,1.183,4.818,0.969,4.727
			c-0.112-0.053-0.224-0.107-0.336-0.16c-0.005,1.379,0.691,2.276,1.546,2.81C2.457,7.553,2.846,7.787,3.251,7.81
			C3.034,7.993,2.108,7.909,1.786,7.873c0.402,1.035,1.02,1.725,2.082,2.1c0.274,0.097,0.608,0.182,0.977,0.176
			c-0.196,0.232-0.614,0.421-0.889,0.582c-0.568,0.333-1.227,0.548-1.97,0.71c-0.298,0.066-0.614,0.052-0.937,0.104
			c-0.357,0.058-0.73-0.03-1.049-0.04c0.096,0.059,0.192,0.117,0.288,0.176c0.293,0.179,0.599,0.334,0.929,0.479
			c0.595,0.26,1.228,0.457,1.93,0.631c1.415,0.352,3.41,0.193,4.645-0.192c3.438-1.071,5.611-3.572,6.43-7.257
			c0.141-0.634,0.161-1.353,0.152-2.108c0.171-0.136,0.342-0.271,0.513-0.407C15.31,2.489,15.707,2.016,16,1.55V1.542
			C15.442,1.716,14.854,2.037,14.142,2.045z"/>
	</g>
</g>
</svg>
